<svg xmlns="http://www.w3.org/2000/svg" viewBox="0 0 14.98 22.07"><defs><style>.cls-1{fill:#fff;}</style></defs><g id="Layer_2" data-name="Layer 2"><g id="Layer_1-2" data-name="Layer 1"><g id="ItgQz6.tif"><path class="cls-1" d="M6.84,22.07a.45.45,0,0,1-.29-.21,1.43,1.43,0,0,1-.25-.51c0-.19,0-.29.2-.31.65,0,1.29,0,1.93,0,.35,0,.41.15.27.47a2.26,2.26,0,0,1-.26.42.31.31,0,0,1-.2.13c-.12,0-.25,0-.38,0Z"/><path class="cls-1" d="M7.86,22.07a1.23,1.23,0,0,1,.38,0v0Z"/><path class="cls-1" d="M8,7c.21.27.41.55.63.81a5.8,5.8,0,0,0,2.19,1.7,4.12,4.12,0,0,0,1.66.25.39.39,0,0,0,.36-.39A.41.41,0,0,0,12.47,9c-.27,0-.54,0-.82-.05a4.83,4.83,0,0,1-.74-.22c-.15-.06-.17-.13-.06-.25s.36-.36.51-.57a.63.63,0,0,1,.71-.27,2.59,2.59,0,0,0,2-.62,7.81,7.81,0,0,0,.6-.56s.1-.13.17-.1.06.13.06.2a4,4,0,0,1-.46,2.5.88.88,0,0,0-.11.5,6.38,6.38,0,0,1,0,1.45,3.55,3.55,0,0,1-.53,1.34l-.21.32c0,.06-.07.08-.15.06a4.1,4.1,0,0,1-2.85-2.15c-.08-.14-.16-.28-.34-.29a.38.38,0,0,0-.38.45,2.31,2.31,0,0,0,.44.8,5.2,5.2,0,0,0,1.82,1.57c.24.12.5.2.76.3s.2.11.12.29a3.54,3.54,0,0,1-1.46,1.71c-.14.09-.14.09-.2-.07a3.87,3.87,0,0,0-.52-1,6.31,6.31,0,0,0-.65-.72.26.26,0,0,1-.08-.3,1.8,1.8,0,0,0,0-.8.45.45,0,0,0-.28-.33c-.16-.07-.38.09-.42.29a2.69,2.69,0,0,0,0,.4c0,.33-.1.45-.42.53l-.31.07a.37.37,0,0,0-.29.43.39.39,0,0,0,.37.32,1.32,1.32,0,0,0,.62-.11.25.25,0,0,1,.27.05,2.75,2.75,0,0,1,1,1.63A2.31,2.31,0,0,1,10.57,17c0,.12-.1.23-.14.36a.51.51,0,0,1-.54.36H8.31a2.09,2.09,0,0,0-.25,0c-.09,0-.12,0-.12-.12,0-.51,0-1,0-1.53V7.91c0-.3,0-.6,0-.9Z"/><path class="cls-1" d="M4.26,8.6A2.82,2.82,0,0,1,2.94,9a2.19,2.19,0,0,0-.51,0,.4.4,0,0,0-.33.42.43.43,0,0,0,.41.34,4,4,0,0,0,2.65-.83,7.35,7.35,0,0,0,1.7-1.82L6.93,7,7,7a.24.24,0,0,1,0,.14c0,3.48,0,7,0,10.43,0,.11,0,.14-.14.14h-2a.16.16,0,0,1-.17-.1c-.11-.23-.21-.45-.3-.69a1.85,1.85,0,0,1,0-1.29,2.7,2.7,0,0,1,1-1.44.37.37,0,0,1,.35-.05,1.27,1.27,0,0,0,.64.07.35.35,0,0,0,.3-.27.38.38,0,0,0-.17-.4,1,1,0,0,0-.33-.11l-.17,0A.41.41,0,0,1,5.55,13c0-.17,0-.33,0-.5a.33.33,0,0,0-.31-.31.3.3,0,0,0-.34.28,1.67,1.67,0,0,0,0,.83.3.3,0,0,1-.11.35,3.58,3.58,0,0,0-.9,1.14c-.09.18-.16.36-.24.54s-.08.17-.23.08A3.63,3.63,0,0,1,2.11,14c-.08-.15-.13-.3-.21-.44s0-.13.08-.15a5,5,0,0,0,1.77-.93A4.94,4.94,0,0,0,5,11a.58.58,0,0,0,.09-.25.37.37,0,0,0-.2-.39.31.31,0,0,0-.41.12c-.2.27-.37.57-.58.84a4,4,0,0,1-2.3,1.44.24.24,0,0,1-.27-.11A4.13,4.13,0,0,1,.54,10a2.23,2.23,0,0,1,0-.36.72.72,0,0,0-.1-.55A3.25,3.25,0,0,1,0,7.91,6.32,6.32,0,0,1,0,6.68c0-.07,0-.15,0-.23s.06-.11.13,0l.33.31a3.46,3.46,0,0,0,1.45.86,2.21,2.21,0,0,0,1.17,0,.28.28,0,0,1,.33.11,7.76,7.76,0,0,0,.73.79Z"/><path class="cls-1" d="M8,0h.39l.35,0A.2.2,0,0,1,8.83.1,5.07,5.07,0,0,1,10,.6l.43.28s.07.05.08.09a3.19,3.19,0,0,1,.13,1.47A.62.62,0,0,1,9.91,3a3.15,3.15,0,0,1-.67-.24A.68.68,0,0,0,9,2.64a.29.29,0,0,0-.34.14.39.39,0,0,0,0,.45,1.83,1.83,0,0,0,1.94.37,1.53,1.53,0,0,0,.75-1.08,2.52,2.52,0,0,0,0-1.25c0-.05,0-.11,0-.14s.08,0,.12,0a1.89,1.89,0,0,1,1.06,1.17.46.46,0,0,0,.18.21A3.76,3.76,0,0,1,14,4.39a4.75,4.75,0,0,0,.39.82.25.25,0,0,1,0,.3A2.7,2.7,0,0,1,13,6.76a2.7,2.7,0,0,1-.89.09c-.07,0-.09,0-.08-.1a2.45,2.45,0,0,0,0-1.26.22.22,0,0,1,.08-.27,1.61,1.61,0,0,0,.5-.68A.37.37,0,0,0,12.35,4a.24.24,0,0,0-.29,0,1.59,1.59,0,0,0-.26.32.44.44,0,0,1-.62.19l-.3-.14c-.21-.09-.36-.06-.46.09a.4.4,0,0,0,.06.54,1.17,1.17,0,0,0,.46.26.48.48,0,0,1,.35.45,2,2,0,0,1-.48,1.62,7,7,0,0,1-.68.65.14.14,0,0,1-.22,0A6.62,6.62,0,0,1,8.75,6.73c-.3-.42-.55-.87-.81-1.32a1,1,0,0,1,0-.51,2.29,2.29,0,0,0,0-.64,1.55,1.55,0,0,1,0-.43,2.36,2.36,0,0,0,0-.65,1.42,1.42,0,0,1,0-.46,2.1,2.1,0,0,0,0-.56,2.53,2.53,0,0,1,0-.55,1.51,1.51,0,0,0,0-.52,1.82,1.82,0,0,1,0-.57,2.41,2.41,0,0,0,0-.38S7.91.05,8,0Z"/><path class="cls-1" d="M7,5.49c-.24.4-.47.81-.74,1.19A8,8,0,0,1,5.1,8c-.16.14-.16.14-.32,0a4.09,4.09,0,0,1-.94-1.09,1.52,1.52,0,0,1-.15-1.25.37.37,0,0,1,.19-.26l.38-.2A.75.75,0,0,0,4.53,5a.33.33,0,0,0,0-.44.3.3,0,0,0-.41-.11l-.29.14a.48.48,0,0,1-.7-.21C3.07,4.28,3,4.19,3,4.11S2.7,4,2.59,4a.45.45,0,0,0-.23.44A1.13,1.13,0,0,0,2.72,5a.6.6,0,0,1,.2.72,2,2,0,0,0,0,1c0,.07,0,.1-.07.11A2.49,2.49,0,0,1,.55,5.57a.33.33,0,0,1,0-.42A2.71,2.71,0,0,0,.9,4.42,3.65,3.65,0,0,1,2,2.71a1.72,1.72,0,0,0,.47-.6,1.81,1.81,0,0,1,1-.95l.05,0h0c0,.17-.08.34-.09.52a2.74,2.74,0,0,0,.11,1.14,1.4,1.4,0,0,0,2,.79,1.77,1.77,0,0,0,.59-.35.3.3,0,0,0,.07-.42.33.33,0,0,0-.42-.18,2.33,2.33,0,0,0-.33.14,2.48,2.48,0,0,1-.35.13.67.67,0,0,1-.92-.61,2.25,2.25,0,0,1,.13-1.15A.88.88,0,0,1,4.77.69,4.36,4.36,0,0,1,7,0V0C7,.31,7,.6,7,.88a3.4,3.4,0,0,0,0,.45c0,.53,0,1.06,0,1.58C7,3.27,7,3.63,7,4c0,.16,0,.31,0,.46s0,.41,0,.62A1.2,1.2,0,0,1,7,5.49Z"/><path class="cls-1" d="M7.62,18.25H9.88a.42.42,0,0,1,.32.32.58.58,0,0,1-.21.54.22.22,0,0,1-.11,0c-1.44,0-2.89,0-4.33,0a2.07,2.07,0,0,1-.35,0,.41.41,0,0,1-.36-.32A.42.42,0,0,1,5,18.34a.29.29,0,0,1,.18-.07c.67-.05,1.35,0,2,0C7.34,18.24,7.48,18.25,7.62,18.25Z"/><path class="cls-1" d="M7.35,19.65h2A.55.55,0,0,1,9.8,20a.45.45,0,0,1-.39.53c-.45,0-.9,0-1.35,0-.77,0-1.54,0-2.31,0a.47.47,0,0,1-.45-.23.42.42,0,0,1,.36-.63C6.29,19.65,6.92,19.66,7.35,19.65Z"/><path class="cls-1" d="M8.83.1,8.34,0h.38C8.79,0,8.84,0,8.83.1Z"/></g></g></g></svg>