<svg xmlns="http://www.w3.org/2000/svg" viewBox="0 0 22.59 23.54"><defs><style>.cls-1,.cls-2,.cls-4{fill:#fff;}.cls-1,.cls-4{stroke:#100540;stroke-miterlimit:10;}.cls-1{stroke-width:0.25px;}.cls-3{fill:#100540;}.cls-4{stroke-width:0.75px;}</style></defs><g id="Layer_2" data-name="Layer 2"><g id="Layer_1-2" data-name="Layer 1"><g id="iMgtoi.tif"><path class="cls-1" d="M19.33,18.37a9.58,9.58,0,0,1-1-.58,2.55,2.55,0,1,1,2.85.24,4,4,0,0,1-.65.25c-.11,0-.16.08-.18.19a6.29,6.29,0,0,1-.8,2.37,4.94,4.94,0,0,1-2.09,2,6.41,6.41,0,0,1-3,.61A8.09,8.09,0,0,1,11,22.68,4.74,4.74,0,0,1,8.74,20.4,7.73,7.73,0,0,1,8.1,18a1.21,1.21,0,0,0,0-.14h-4c-.4,0-.56-.15-.59-.55a5.28,5.28,0,0,1,0-.56c0-1.48,0-2.95,0-4.43V12l.51.54a3.34,3.34,0,0,0,.32.33.68.68,0,0,1,.26.67,1.53,1.53,0,0,0,0,.37c0,.17.09.27.28.25h.6a.76.76,0,0,1,.5.15,4.79,4.79,0,0,0,1.6.79c.13,0,.17.08.17.22,0,.58,0,1.17,0,1.75a.86.86,0,0,0,.24.69,1.06,1.06,0,0,0,.88.19l.25-.05c.07.36.13.73.22,1.09a4.22,4.22,0,0,0,3.28,3.33,6.56,6.56,0,0,0,4-.12,4,4,0,0,0,2.17-2.05A5.72,5.72,0,0,0,19.33,18.37Zm2.33-2.53a1.74,1.74,0,1,0-1.81,1.71A1.73,1.73,0,0,0,21.66,15.84Z"/><path class="cls-1" d="M3.46,3.49l-.58.33a.94.94,0,0,1-.23.1.26.26,0,0,1-.33-.13c-.12-.21-.27-.39-.39-.59a.28.28,0,0,1,0-.22.45.45,0,0,1,.14-.19c.34-.2.69-.41,1.05-.59a1.35,1.35,0,0,1,.38-.05V2c0-.46,0-.91,0-1.37A.43.43,0,0,1,4,.13h8.84a2.18,2.18,0,0,1,.62.11.33.33,0,0,1,.23.36V2.14A2.94,2.94,0,0,1,15,2.8c.21.14.2.27.05.49s-.2.3-.3.45-.24.24-.47.14-.31-.18-.46-.27l-.18-.09V9.64c-.46.13-.68.55-1,.83a1.28,1.28,0,0,1,0-.17V4.45c0-.81,0-1.61,0-2.42,0-.19-.06-.25-.25-.25H4.83c-.26,0-.27,0-.27.27,0,2.25,0,4.51,0,6.77v1.73c-.18-.18-.32-.33-.48-.47l-.52-.43a.31.31,0,0,1-.09-.19q0-.56,0-1.11V3.7A2.06,2.06,0,0,0,3.46,3.49Z"/><path class="cls-2" d="M5.13,6.73a3.44,3.44,0,1,1,3.43,3.43A3.43,3.43,0,0,1,5.13,6.73ZM7.79,4.44V6H6.25V7.38H7.8V8.93H9.19V7.38h1.56V6H9.37c-.15,0-.2,0-.19-.19s0-.49,0-.73V4.44Z"/><path class="cls-1" d="M9.32,15v.73c0,.51,0,1,0,1.54a.4.4,0,0,1-.4.45,1.7,1.7,0,0,1-.55,0,.51.51,0,0,1-.44-.55c0-.67,0-1.33,0-2,0-.16,0-.23-.21-.26a5.05,5.05,0,0,1-1.91-1,18.52,18.52,0,0,1-2.39-2.21,9.71,9.71,0,0,1-.73-1,.35.35,0,0,1,0-.5c.07-.08.13-.16.2-.23a.56.56,0,0,1,.93,0l1.71,1.83a7.51,7.51,0,0,0,1.7,1.43,2.51,2.51,0,0,0,3.1-.22A10.62,10.62,0,0,0,12,11.44c.43-.48.86-.95,1.3-1.42A.46.46,0,0,1,14,10a1.29,1.29,0,0,1,.17.15c.37.4.37.64,0,1-.79.83-1.57,1.67-2.38,2.47A4.82,4.82,0,0,1,9.32,15Z"/><path class="cls-2" d="M13.64,12.06V17a2.83,2.83,0,0,1,0,.29.6.6,0,0,1-.67.61c-.89,0-1.78,0-2.67,0H9.13a.79.79,0,0,0,.37-.75c0-.59,0-1.17,0-1.75v-.21a5.42,5.42,0,0,0,1.93-.94.45.45,0,0,1,.23-.08h.67a.21.21,0,0,0,.25-.22c0-.21,0-.42,0-.63a.33.33,0,0,1,.06-.19Z"/><path class="cls-1" d="M14.57,10.24l-.69-.61.74-.92a6.57,6.57,0,0,0,1.11-1.94A2.26,2.26,0,0,0,15,4.19L14.83,4l.52-.77A3.32,3.32,0,0,1,16.91,6.1a4.42,4.42,0,0,1-.71,2.05,12.6,12.6,0,0,1-1.55,2Z"/><path class="cls-1" d="M3.16,9.59l-.72.64-.6-.69A8.3,8.3,0,0,1,.43,7.33,3,3,0,0,1,.6,4.38,4.14,4.14,0,0,1,1.69,3.26L2.21,4A3.13,3.13,0,0,0,1.34,5.1,2.38,2.38,0,0,0,1.4,7,7.29,7.29,0,0,0,2.66,9Z"/><path class="cls-2" d="M21.66,15.84a1.71,1.71,0,0,1-1.81,1.71,1.73,1.73,0,1,1,1.81-1.71Zm-.24,0a1.51,1.51,0,1,0-1.51,1.5A1.5,1.5,0,0,0,21.42,15.85Z"/><path class="cls-3" d="M7.79,4.44H9.2v.64c0,.24,0,.48,0,.73s0,.2.19.19h1.38V7.38H9.19V8.93H7.8V7.38H6.25V6H7.79Z"/><path class="cls-4" d="M21.42,15.85a1.5,1.5,0,0,1-1.51,1.5,1.52,1.52,0,0,1-1.5-1.55,1.51,1.51,0,0,1,3,0Z"/></g></g></g></svg>