<svg xmlns="http://www.w3.org/2000/svg" viewBox="0 0 95.9 88.91"><defs><style>.cls-1{fill:#fff;}</style></defs><g id="Layer_2" data-name="Layer 2"><g id="Layer_1-2" data-name="Layer 1"><g id="odM2Ra.tif"><path class="cls-1" d="M58.44,72.26c.23,2.56.33,4.92.69,7.24A6.39,6.39,0,0,0,62.31,84c1.35.82,2.75,1.57,4,2.47a6.41,6.41,0,0,1,1.19,1.65,5.73,5.73,0,0,1-1.73.62q-17.48.13-34.95.15a5.53,5.53,0,0,1-1.76-.64,6.49,6.49,0,0,1,1.15-1.58,36.42,36.42,0,0,1,3.62-2.25,7.14,7.14,0,0,0,3.84-5.82c.19-2,.29-4.07.44-6.3H36.29L10.2,72.4H7.51C2.4,72.34.29,70.26.23,65.18c-.05-4.9,0-9.8-.06-14.71Q.09,29.53,0,8.57V7.93C.1,2.51,2.17.38,7.63.32,14.69.24,21.76.26,28.82.24l58-.24H88c5.46,0,7.7,2.23,7.71,7.68q.07,20.16.13,40.32c0,5.32.07,10.63.09,16a20.07,20.07,0,0,1-.15,2.68c-.38,3.26-2.3,5.21-5.58,5.37-3.74.17-7.48.15-11.23.17-6.22,0-12.44.06-18.66.09ZM47.67,57.19v-.28h37.8c1.06,0,2.11,0,3.17,0a1.89,1.89,0,0,0,2-2c.11-2,.25-4.1.23-6.14,0-4.06-.22-8.11-.26-12.17-.08-9.49-.09-19-.16-28.47,0-2.8-.17-2.92-3-2.91L7.93,5.56c-2.51,0-2.74.23-2.74,2.69,0,10-.08,19.92-.07,29.88,0,5.37.12,10.75.18,16.12,0,2.76.21,2.94,3,2.94Zm4.49,7.67a4.14,4.14,0,0,0-4.11-4.29,4.28,4.28,0,0,0-4.17,4.28,4.35,4.35,0,0,0,4.25,4.25A4.23,4.23,0,0,0,52.16,64.86Z"/><path class="cls-1" d="M52.16,64.86a4.23,4.23,0,0,1-4,4.24,4.35,4.35,0,0,1-4.25-4.25,4.28,4.28,0,0,1,4.17-4.28A4.14,4.14,0,0,1,52.16,64.86Z"/><path class="cls-1" d="M76.91,29.85,66.58,35.7c-1.08-3.09-3.77-4.05-6.43-4.81a41.43,41.43,0,0,0-22.31,0A16.62,16.62,0,0,0,35.06,32c-1.62.75-3,1.72-3.47,3.78l-3.16-1.65c0,1.42-.62,2.71.67,3.74a.82.82,0,0,1,.24.71c-1.11,2.74.86,5.19.71,7.83a19.06,19.06,0,0,0,.36,2.33c.06.79.47,1.93-.69,2.12a12.73,12.73,0,0,1-3.63-.2c-.17,0-.36-.84-.31-1.26.24-2.19.55-4.38.84-6.57.17-1.31.95-2.56.16-4-.15-.25.25-.83.41-1.25a9.26,9.26,0,0,0,.52-1.38,3,3,0,0,0-2.1-3.79,40,40,0,0,1-4.33-2.36c.84-.51,1.53-1,2.25-1.36,7.83-4.34,15.68-8.64,23.49-13a3.62,3.62,0,0,1,4,0c7.88,4.36,15.81,8.64,23.72,13C75.34,29,76,29.32,76.91,29.85Z"/><path class="cls-1" d="M49,31.45a32.94,32.94,0,0,1,12.24,1.91c2.39.94,3.71,2.38,3.47,5.09a32.48,32.48,0,0,0,.08,4.73c.07,1.09-.31,1.77-1.36,2-3.84.67-7.68,1.64-11.55,1.85a99.14,99.14,0,0,1-12.65-.46,24,24,0,0,1-4.73-1.16,1.73,1.73,0,0,1-1.4-2c.16-2.1.23-4.21.33-6.31a3.49,3.49,0,0,1,2.19-3.17C39.86,31.79,44.4,31.48,49,31.45ZM63.1,44.18c-2.23-2.85-24.66-2.88-28.38,0a5.66,5.66,0,0,0,1.6.82c2.8.37,5.6.72,8.41.93a71.75,71.75,0,0,0,16.43-.82A7.81,7.81,0,0,0,63.1,44.18Z"/></g></g></g></svg>