<svg xmlns="http://www.w3.org/2000/svg" viewBox="0 0 24.69 14.81"><defs><style>.cls-1{fill:#fff;stroke:#100540;stroke-miterlimit:10;stroke-width:0.25px;}</style></defs><g id="Layer_2" data-name="Layer 2"><g id="Layer_1-2" data-name="Layer 1"><g id="f4cLGP.tif"><path class="cls-1" d="M10,1.28,8.46,2.34l-.29.23C7.3,3.34,7,4,7.36,4.66a2.14,2.14,0,0,0,2.39.65,17.48,17.48,0,0,1,2.47-.72A1.76,1.76,0,0,1,14,5.25,37.61,37.61,0,0,1,17.23,10a2,2,0,0,1,.31,1,1,1,0,0,1-.65,1c-.4.17-.66-.08-.9-.33a2.75,2.75,0,0,0-.67-.59c.13.36.27.71.39,1.07a.86.86,0,0,1-.25,1,.79.79,0,0,1-1-.08c-.35-.26-.68-.55-1.11-.9.14.39.26.7.35,1,.16.6-.38,1.29-.9,1a1.58,1.58,0,0,0-1.72.21c.4-1,.42-1.71-.43-2.35-.36-.26-.35-1.13-.92-1.31a4.35,4.35,0,0,1-2-1.49A.77.77,0,0,0,7.28,9,3.44,3.44,0,0,1,5,7.69,1.8,1.8,0,0,0,3.9,7.24C2.47,7.1,1.51,6.05.32,5.44.05,5.31.11,5.11.19,4.88A16.05,16.05,0,0,1,2.66.38.48.48,0,0,1,3.34.19,13.43,13.43,0,0,0,10,1.28Z"/><path class="cls-1" d="M15,.47a5.28,5.28,0,0,1,3.22.82,2.78,2.78,0,0,0,2.42.05A9.19,9.19,0,0,0,22.21.71c.33-.16.52-.14.69.2a24,24,0,0,1,1.63,4.25c.08.29,0,.47-.23.6-2.13,1-3.81,2.68-5.68,4.07-.46.34-.69.38-1-.22a57.6,57.6,0,0,0-3.66-5.27A1.16,1.16,0,0,0,12.67,4a12.1,12.1,0,0,0-2.7.72,2.09,2.09,0,0,1-1.57.15c-.77-.28-1-1-.35-1.53C10.1,1.75,12.25.36,15,.47Z"/><path class="cls-1" d="M8.45,13.44a3.8,3.8,0,0,1-.73.11c-.71,0-1-.45-.8-1.13,0-.14.17-.24.1-.47-.8.37-1.63.79-2.27-.23A1.42,1.42,0,0,1,4.93,9.9,1.76,1.76,0,0,1,7,9.59c.66.4.8.89.47,1.89.41-.17.7-.49,1.13-.5a1.28,1.28,0,0,1,1.1.49c.39.46.2.86-.14,1.24-.08.08-.27.14-.19.25s.24,0,.37-.07c.41-.15.87-.35,1.15.17s-.11.83-.44,1.12a1.7,1.7,0,0,1-1.61.44c-.65-.18-.73-.45-.3-1,.09-.06.29-.1.22-.21S8.57,13.41,8.45,13.44Z"/><path class="cls-1" d="M5,9A1.13,1.13,0,0,1,3.88,10.1a1.31,1.31,0,0,1-1.1-1.35.86.86,0,0,1,1-.92A1.28,1.28,0,0,1,5,9Z"/><path class="cls-1" d="M8.45,13.44c.12,0,.26-.21.35,0s-.13.15-.22.21Z"/><path class="cls-1" d="M9.78,12.89c-.13,0-.26.21-.37.07s.11-.17.19-.25Z"/></g></g></g></svg>