<svg xmlns="http://www.w3.org/2000/svg" viewBox="0 0 22.82 13.79"><defs><style>.cls-1{fill:#fff;}</style></defs><g id="Layer_2" data-name="Layer 2"><g id="Layer_1-2" data-name="Layer 1"><g id="tUpp11.tif"><path class="cls-1" d="M20.59,6.89,15.3,4.25a.77.77,0,0,1-.55-.81c.06-.63.58-.88,1.2-.57,1.44.71,2.87,1.44,4.3,2.16.69.35,1.39.67,2.05,1.06a1.11,1.11,0,0,1,.52.72,1,1,0,0,1-.5.74C20.18,8.66,18,9.74,15.88,10.82c-.49.25-.85.14-1.05-.28s-.08-.73.4-1l4.68-2.34Z"/><path class="cls-1" d="M2.3,6.9,6.37,9l1.19.62A.78.78,0,0,1,8,10.67c-.17.34-.58.43-1,.19L1.1,7.91a2.38,2.38,0,0,1-.61-.33C.28,7.39,0,7.12,0,6.89a1,1,0,0,1,.51-.67c1.66-.86,3.33-1.69,5-2.53.49-.25,1-.51,1.48-.75a.65.65,0,0,1,1,.3.65.65,0,0,1-.35,1L2.74,6.66Z"/><path class="cls-1" d="M14.54.83c0,.11-.09.3-.16.49Q12.11,7.19,9.86,13.05c-.25.64-.65.88-1.11.66a.7.7,0,0,1-.32-1Q10.29,7.84,12.16,3c.32-.84.64-1.67,1-2.5A.69.69,0,0,1,13.94,0C14.31.09,14.52.35,14.54.83Z"/></g></g></g></svg>