<svg xmlns="http://www.w3.org/2000/svg" viewBox="0 0 13.74 18.06"><defs><style>.cls-1{fill:#fff;}.cls-2{fill:#0e0e51;}</style></defs><g id="Layer_2" data-name="Layer 2"><g id="Layer_1-2" data-name="Layer 1"><g id="_7DZgQL.tif" data-name="7DZgQL.tif"><path class="cls-1" d="M0,18.06V1.62H2.26c0,.22,0,.46.08.68A2.17,2.17,0,0,0,4.47,4c1.65,0,3.3,0,4.94,0a2.17,2.17,0,0,0,2.18-2.19V1.61h2.15V18.06Zm3.4-4.67-.95-1-.86.84,1.05,1-1,.89.81.86,1-1,.93,1,.87-.84-1.06-1,1-.9-.79-.88Zm7.35-6,1.05-.94-.87-.86L10,6.62l-.87-1-.88.76,1,1-1,.93.83.86,1-1,1,1,.85-.81Zm1.07,5.55L10.94,12l-1,1.07-1-1-.79.79,1,1-1,.92.83.9,1-1.11.9,1,.84-.83-1.05-.92ZM3.19,9.61A1.15,1.15,0,0,0,4.31,8.49a1.13,1.13,0,0,0-2.26,0A1.15,1.15,0,0,0,3.19,9.61Zm4.63.66A2.72,2.72,0,0,0,5.58,8.75c-.42-.05-.64.05-.67.3s.14.39.58.42h.1a2,2,0,0,1,1.52,1l-.4.17,1.18,1.08.35-1.58Z"/><path class="cls-1" d="M9.2.77a4.09,4.09,0,0,1,.45,0A1,1,0,0,1,10.44,2a1,1,0,0,1-1,.9c-1.09,0-2.19,0-3.28,0H4.56A1,1,0,1,1,4.54.8h.27V0H9.2Z"/><path class="cls-2" d="M3.4,13.39l1-1.06.79.88-1,.9,1.06,1-.87.84-.93-1-1,1-.81-.86,1-.89-1-1,.86-.84Z"/><path class="cls-2" d="M10.75,7.35l1.07,1L11,9.17l-1-1-1,1-.83-.86,1-.93-1-1,.88-.76.87,1,1-1.07.87.86Z"/><path class="cls-2" d="M11.82,12.9l-1,.95,1.05.92L11,15.6l-.9-1-1,1.11-.83-.9,1-.92-1-1L9,12.09l1,1,1-1.07Z"/><path class="cls-2" d="M3.19,9.61A1.15,1.15,0,0,1,2.05,8.48a1.13,1.13,0,0,1,2.26,0A1.15,1.15,0,0,1,3.19,9.61Z"/><path class="cls-2" d="M7.82,10.27l.42-.13-.35,1.58L6.71,10.64l.4-.17a2,2,0,0,0-1.52-1h-.1c-.44,0-.62-.15-.58-.42s.25-.35.67-.3A2.72,2.72,0,0,1,7.82,10.27Z"/></g></g></g></svg>