<svg xmlns="http://www.w3.org/2000/svg" viewBox="0 0 97.49 26.3"><defs><style>.cls-1{fill:#fff;}</style></defs><g id="Layer_2" data-name="Layer 2"><g id="Layer_1-2" data-name="Layer 1"><path class="cls-1" d="M12.71,18.55a1.75,1.75,0,0,0-1.35,1.83c0,.79-.06,1.48-1,1.68a2.46,2.46,0,0,1-1.07-.2,1.83,1.83,0,1,0,.42,3.38,1.88,1.88,0,0,0,1-1.91c0-1.19.49-1.58,1.66-1.33l.75.13a1.69,1.69,0,0,0,1.74-1,1.7,1.7,0,0,0-.2-1.89A1.67,1.67,0,0,0,12.71,18.55Z"/><path class="cls-1" d="M23.55,15.66c-1.43,0-1.77-.4-1.54-1.85a1.65,1.65,0,0,0-1.67-2.39,1.7,1.7,0,0,0-1.83,1.71A1.81,1.81,0,0,0,20.36,15c1.67.1,1.9.4,1.54,2a1.85,1.85,0,0,0,1.5,2.3,1.83,1.83,0,1,0,.15-3.65Z"/><path class="cls-1" d="M8.09,9.93A1.71,1.71,0,0,0,9.81,8.82,1.88,1.88,0,0,0,9.23,6.6c-.88-.84-.77-1.6.27-2.17a2.46,2.46,0,0,0,.72-.55,1.75,1.75,0,0,0,0-2.32c-.86-.85-1.72-1-2.49-.35a1.8,1.8,0,0,0-.46,2.51c1.19,1.72,1.19,1.73-.4,3.06h0a1.65,1.65,0,0,0-.48,2.05A1.68,1.68,0,0,0,8.09,9.93Z"/><path class="cls-1" d="M3,10.65c1.22,0,1.66.53,1.35,1.74a2,2,0,0,0,.08,1.67,1.93,1.93,0,0,0,2.31.8,1.86,1.86,0,0,0,1.12-2,1.8,1.8,0,0,0-1.79-1.51C4.61,11.29,4.5,11.2,4.23,10h0a3.07,3.07,0,0,0,.17-.42,1.86,1.86,0,0,0-.65-2.27,1.79,1.79,0,0,0-2.14.09,1.74,1.74,0,0,0-.64,2A1.87,1.87,0,0,0,3,10.65Z"/><path class="cls-1" d="M17,4.44A1.85,1.85,0,0,0,19.34,3,1.9,1.9,0,0,0,17.71.83a1.86,1.86,0,0,0-2,1.89c0,1.59-.46,1.9-2,1.52A1.83,1.83,0,1,0,15,6C15.07,4.35,15.44,4.06,17,4.44Z"/><path class="cls-1" d="M17,16.91a1.89,1.89,0,0,0,.13,2.75c1,1,.87,1.64-.37,2.31a1.83,1.83,0,0,0,.69,3.49c1.35.09,2.14-1.07,1.81-2.65-.57-1-1.22-2,0-3h0l.18-.2A1.84,1.84,0,1,0,17,16.91Z"/><path class="cls-1" d="M17.46,6.44a1.84,1.84,0,0,0-.91,2.32,1.68,1.68,0,0,0,2.18,1,1.29,1.29,0,0,0,1-.57c.83-.9,1.62-.8,2.23.27a1.93,1.93,0,0,0,1.71,1.16,1.82,1.82,0,0,0,1.78-1.3c.28-.95-.14-1.74-1.23-2.34a1.7,1.7,0,0,0-1.88.48c-.45.44-.93.89-1.65.64-.63,0-.59-.63-.82-1A1.84,1.84,0,0,0,17.46,6.44Z"/><path class="cls-1" d="M8.48,20a1.84,1.84,0,0,0,.46-3.44A1.8,1.8,0,0,0,6.71,17c-.83.84-1.19.85-2.11.19a4.64,4.64,0,0,0-.41-.8A1.81,1.81,0,0,0,1.69,16a1.85,1.85,0,0,0-.58,2.41A1.78,1.78,0,0,0,3.68,19h0c.26-.06.37-.3.54-.47a1.23,1.23,0,0,1,2.19.35A1.88,1.88,0,0,0,8.48,20Z"/><path class="cls-1" d="M4.91,20.57a1.17,1.17,0,0,0-1.36,1,1,1,0,0,0,1,1.19,1,1,0,0,0,1.25-1A1.08,1.08,0,0,0,4.91,20.57Z"/><path class="cls-1" d="M21.64,20.57a1.06,1.06,0,0,0-1,1.16,1,1,0,0,0,1,1.07,1.12,1.12,0,0,0,1.2-1.11A1.09,1.09,0,0,0,21.64,20.57Z"/><path class="cls-1" d="M2.23,13.14a1,1,0,0,0-1.09-1.08A1.09,1.09,0,0,0,0,13.12a1.14,1.14,0,0,0,1.09,1.17A1.11,1.11,0,0,0,2.23,13.14Z"/><path class="cls-1" d="M25.23,12.08a1,1,0,0,0-1.07,1.06,1,1,0,0,0,.94,1.12,1.09,1.09,0,0,0,1.25-1.13A1,1,0,0,0,25.23,12.08Z"/><path class="cls-1" d="M4.62,5.75A1.13,1.13,0,0,0,5.79,4.62,1.07,1.07,0,0,0,4.67,3.54a1,1,0,0,0-1.1,1.07A1,1,0,0,0,4.62,5.75Z"/><path class="cls-1" d="M13.18,2.2a1,1,0,0,0,1.12-.93A1.12,1.12,0,0,0,13.15,0a1,1,0,0,0-1.07,1.12A1,1,0,0,0,13.18,2.2Z"/><path class="cls-1" d="M21.66,5.75a1.17,1.17,0,0,0,1.18-1.14,1.07,1.07,0,0,0-1.08-1.07,1.06,1.06,0,0,0-1.17,1.08A1.07,1.07,0,0,0,21.66,5.75Z"/><path class="cls-1" d="M13.23,24.13a1.09,1.09,0,1,0,0,2.17,1,1,0,0,0,1.11-1.05A1,1,0,0,0,13.23,24.13Z"/><path class="cls-1" d="M36.19,5.61h-3.7L31.68,7.4h-.5L34.11,1h.47L37.51,7.4H37ZM36,5.22,34.34,1.53,32.67,5.22Z"/><path class="cls-1" d="M38.67,1h.46V7.4h-.46Z"/><path class="cls-1" d="M36.49,10.15v1h-3.4v1.69h3v1h-3v1.7H36.6v1H32V10.15Z"/><path class="cls-1" d="M42.75,10.15h1.08v6.37H42.66l-3.61-4.65v4.65H38V10.15h1.07l3.7,4.76Z"/><path class="cls-1" d="M50,13.42h1.08V15.6a3.31,3.31,0,0,1-2.58,1,3.27,3.27,0,0,1-2.37-.93,3.18,3.18,0,0,1-1-2.36,3.17,3.17,0,0,1,1-2.37A3.25,3.25,0,0,1,48.51,10a3.32,3.32,0,0,1,2.29.81l-.58.82a2.1,2.1,0,0,0-.75-.44,2.63,2.63,0,0,0-.88-.13,2.24,2.24,0,0,0-1.62.63,2.14,2.14,0,0,0-.66,1.64,2.15,2.15,0,0,0,2.18,2.25,2.77,2.77,0,0,0,1.52-.4Z"/><path class="cls-1" d="M52.5,10.15h1.08v6.37H52.5Z"/><path class="cls-1" d="M60.12,10.15H61.2v6.37H60l-3.61-4.65v4.65H55.35V10.15h1.07l3.7,4.76Z"/><path class="cls-1" d="M67.45,10.15v1H64v1.69H67.1v1H64v1.7h3.51v1H63V10.15Z"/><path class="cls-1" d="M73.41,10.15v1H70v1.69h3v1H70v1.7h3.51v1H68.93V10.15Z"/><path class="cls-1" d="M80,12.22a1.86,1.86,0,0,1-1.38,2l1.67,2.31H78.91l-1.53-2.14H76v2.14H74.89V10.15h2.37a3.42,3.42,0,0,1,2.09.49A1.89,1.89,0,0,1,80,12.22Zm-1.43.9a1.14,1.14,0,0,0,.33-.91,1,1,0,0,0-.34-.85,2.16,2.16,0,0,0-1.2-.24H76V13.4h1.34A2,2,0,0,0,78.55,13.12Z"/><path class="cls-1" d="M81.53,10.15h1.08v6.37H81.53Z"/><path class="cls-1" d="M89.15,10.15h1.08v6.37H89.06l-3.61-4.65v4.65H84.38V10.15h1.07l3.7,4.76Z"/><path class="cls-1" d="M96.41,13.42h1.08V15.6a3.31,3.31,0,0,1-2.58,1,3.27,3.27,0,0,1-2.37-.93,3.18,3.18,0,0,1-1-2.36,3.17,3.17,0,0,1,1-2.37A3.25,3.25,0,0,1,94.91,10a3.32,3.32,0,0,1,2.29.81l-.58.82a2.1,2.1,0,0,0-.75-.44,2.63,2.63,0,0,0-.88-.13,2.24,2.24,0,0,0-1.62.63,2.14,2.14,0,0,0-.66,1.64,2.15,2.15,0,0,0,2.18,2.25,2.77,2.77,0,0,0,1.52-.4Z"/><path class="cls-1" d="M32.24,19.26h.47v6h3.67v.42H32.24Z"/><path class="cls-1" d="M37.58,19.26H38v6.38h-.46Z"/><path class="cls-1" d="M46.3,25.64V20.18l-2.67,4.61h-.23L40.72,20.2v5.44h-.46V19.26h.4l2.85,4.93,2.85-4.93h.39v6.38Z"/><path class="cls-1" d="M49,19.26h.47v6.38H49Z"/><path class="cls-1" d="M52.89,19.68H50.6v-.42h5v.42H53.36v6h-.47Z"/><path class="cls-1" d="M61.21,25.22v.42H56.8V19.26h4.27v.42h-3.8v2.51h3.4v.41h-3.4v2.62Z"/><path class="cls-1" d="M62.9,19.26h2.53a3.6,3.6,0,0,1,1.76.41,2.91,2.91,0,0,1,1.2,1.13,3.17,3.17,0,0,1,.43,1.65,3.11,3.11,0,0,1-.43,1.64,2.87,2.87,0,0,1-1.2,1.14,3.72,3.72,0,0,1-1.76.41H62.9Zm2.49,6A3.38,3.38,0,0,0,67,24.87a2.46,2.46,0,0,0,1-1A3,3,0,0,0,68,21a2.46,2.46,0,0,0-1-1,3.26,3.26,0,0,0-1.56-.35h-2v5.54Z"/></g></g></svg>